<?xml version="1.0" standalone="no"?>
<!DOCTYPE svg PUBLIC "-//W3C//DTD SVG 20010904//EN"
 "http://www.w3.org/TR/2001/REC-SVG-20010904/DTD/svg10.dtd">
<svg version="1.0" xmlns="http://www.w3.org/2000/svg"
 width="93.000000pt" height="14.000000pt" viewBox="0 0 93.000000 14.000000"
 preserveAspectRatio="xMidYMid meet">

<g transform="translate(0.000000,14.000000) scale(0.100000,-0.100000)"
fill="#000000" stroke="none">
<path d="M27 124 c-4 -4 -7 -16 -7 -26 0 -15 6 -19 28 -16 19 2 27 9 27 23 0
20 -33 33 -48 19z"/>
<path d="M226 114 c-20 -19 -21 -77 -2 -93 7 -6 32 -10 55 -9 l41 1 0 49 c0
43 -3 50 -26 58 -35 14 -50 12 -68 -6z m72 -53 c-4 -30 -38 -40 -57 -17 -16
19 -6 53 17 59 26 5 43 -13 40 -42z"/>
<path d="M383 123 c-21 -4 -23 -10 -23 -59 0 -64 17 -73 22 -11 2 35 7 43 26
45 20 3 22 -1 22 -42 0 -25 5 -46 10 -46 6 0 10 24 10 54 0 51 -11 70 -38 65
-4 -1 -17 -4 -29 -6z"/>
<path d="M509 120 c-25 -15 -32 -58 -14 -86 22 -34 78 -34 100 0 38 57 -26
121 -86 86z m69 -58 c-2 -23 -8 -27 -33 -27 -24 0 -31 5 -33 24 -5 32 23 54
50 40 13 -7 18 -19 16 -37z"/>
<path d="M630 125 c0 -18 55 -113 61 -104 9 15 -33 108 -48 109 -7 0 -13 -2
-13 -5z"/>
<path d="M706 115 c-3 -8 -3 -22 1 -31 5 -14 8 -12 19 7 7 13 13 27 14 32 0
13 -28 7 -34 -8z"/>
<path d="M786 114 c-19 -18 -21 -75 -4 -92 7 -7 31 -12 55 -12 l43 0 0 50 c0
45 -3 52 -26 60 -35 14 -50 12 -68 -6z m74 -43 c0 -28 -28 -47 -48 -34 -24 15
-27 44 -7 59 22 17 55 1 55 -25z"/>
<path d="M92 86 c-8 -19 -20 -25 -49 -28 -30 -2 -39 -8 -41 -24 -5 -37 29 -40
58 -4 19 23 33 30 58 30 29 0 33 3 30 23 -4 32 -41 35 -56 3z"/>
</g>
</svg>
